<svg xmlns="http://www.w3.org/2000/svg" xmlns:svg="http://www.w3.org/2000/svg" xmlns:xlink="http://www.w3.org/1999/xlink" width="100%" height="100%" viewBox="0 0  867 558" preserveAspectRatio="xMidYMid meet" zoomAndPan="disable"><defs id="svgEditorDefs"><line id="svgEditorLineDefs" stroke="black" style="fill: none; vector-effect: non-scaling-stroke; stroke-width: 1px;"/><path id="svgEditorClosePathDefs" stroke="black" fill="khaki" style="vector-effect: non-scaling-stroke; stroke-width: 1px;"/></defs><rect id="svgEditorBackground" x="0" y="0" width="867" height="558" style="fill: none; stroke: none;"/><path stroke="black" id="e9_area3" style="stroke-width: 1px; vector-effect: non-scaling-stroke;" fill="red" d="M552,92c7.65509033203125,-18.973342895507812,1.67169189453125,-9.371131896972656,7,-13c5.32830810546875,-3.6288681030273438,32.53997802734375,-4.092231750488281,37,3c4.46002197265625,7.092231750488281,1.53955078125,19.588653564453125,11,32c9.46044921875,12.411346435546875,49.9193115234375,57.07484436035156,65,65c15.0806884765625,7.9251556396484375,36.45697021484375,24.469207763671875,40,33c3.54302978515625,8.530792236328125,3.6566162109375,21.020736694335938,-1,24c-4.6566162109375,2.9792633056640625,-14.218017578125,7.371185302734375,-21,2c-6.781982421875,-5.371185302734375,-36.32080078125,-16.001251220703125,-49,-35c-33.67919921875,-31.998748779296875,-96.65509033203125,-92.02665710449219,-89,-111Z" transform=""/><path stroke="black" id="e44_area3" style="stroke-width: 1px; vector-effect: non-scaling-stroke;" fill="lightskyblue" d="M 639 169 c 10.4261 -4.11072 55.9675 -29.6864 69 -32 c 13.0325 -2.3136 18.5771 -1.97592 30 -5 c 11.4229 -3.02408 46.8592 -29.5455 51 -39 c 4.14081 -9.45447 1.84985 -13.0385 7 -18 c 5.15015 -4.96149 25.961 -18.4114 34 -18 c 8.039 0.411388 25.7576 1.10788 31 -5 c 5.24243 -6.10788 9.7323 -28.5145 2 -33 c -15.7323 -12.4855 -30.5052 -16.6936 -46 -15 c -19.4948 0.693616 -111.112 1.39567 -133 10 c -21.8879 8.60433 -41.2581 24.3629 -44 37 c -2.74188 12.6371 8.00507 28.0644 15 40 c 9.99493 -1.06444 17.1705 23.3227 12 22 c -1.17047 4.67728 -45.624 35.4488 -83 57 c 20.624 22.5512 36.5739 12.1107 55 -1 Z"/><path d="M321,300c-22.93756103515625,-8.56658935546875,-22.6917724609375,-10.4515380859375,-26,-5c-3.3082275390625,5.4515380859375,-6.09356689453125,21.681243896484375,2,27c8.09356689453125,5.318756103515625,39.599639892578125,13.595916748046875,51,26c11.400360107421875,12.404083251953125,46.337982177734375,46.149017333984375,52,60c5.662017822265625,13.850982666015625,37.29144287109375,39.590850830078125,46,36c8.70855712890625,-3.590850830078125,13.0732421875,-7.940277099609375,13,-12c-0.0732421875,-4.059722900390625,4.014678955078125,7.3702392578125,-5,-15c-9.014678955078125,-22.3702392578125,-110.06243896484375,-108.43341064453125,-133,-117Z" stroke="black" id="e7_area3" style="stroke-width: 1px; vector-effect: non-scaling-stroke;" fill="red"/><path d="M328,401c4.91009521484375,-4.203338623046875,34.614501953125,-26.8663330078125,42,-33c7.385498046875,-6.1336669921875,17.06854248046875,-11.716583251953125,22,-12c4.93145751953125,-0.283416748046875,11.584930419921875,1.080291748046875,14,4c2.415069580078125,2.919708251953125,14.665740966796875,5.953338623046875,6,15c-8.665740966796875,9.046661376953125,-58.07122802734375,46.28546142578125,-71,59c-12.92877197265625,12.71453857421875,-27.450408935546875,27.390869140625,-39,36c-11.549591064453125,8.609130859375,-43.887298583984375,26.496337890625,-55,29c-11.112701416015625,2.503662109375,-20.799209594726562,3.69036865234375,-29,7c-8.200790405273438,3.30963134765625,-28.349441528320312,20.508544921875,-30,28c-1.6505584716796875,7.491455078125,5.4360504150390625,19.63848876953125,-4,22c-9.436050415039062,2.36151123046875,-51.57762145996094,-2.00048828125,-65,0c-13.422378540039062,2.00048828125,-51.304412841796875,14.9498291015625,-45,1c6.304412841796875,-13.9498291015625,69.15219116210938,-87.81417846679688,78,-111c8.847808837890625,-23.185821533203125,16.974899291992188,-45.8504638671875,25,-60c8.025100708007812,-14.1495361328125,38.83036804199219,-39.72418212890625,51,-42c12.169631958007812,-2.27581787109375,18.46490478515625,-0.240203857421875,33,1c14.53509521484375,1.240203857421875,63.0709228515625,41.3807373046875,66,52c2.9290771484375,10.6192626953125,-3.91009521484375,8.203338623046875,1,4Z" stroke="black" id="e31_area3" style="stroke-width: 1px; vector-effect: non-scaling-stroke;" fill="lightskyblue" transform="matrix(1 0 0 1 -3 -9)"/><path d="M571,409c11.7154541015625,19.41510009765625,31.23529052734375,27.2205810546875,39,40c7.76470947265625,12.7794189453125,19.4691162109375,49.614898681640625,15,62c-4.4691162109375,12.3851318359375,-31.11053466796875,36.00494384765625,-15,44c16.11053466796875,7.99505615234375,101.66900634765625,-2.3043212890625,128,-5c26.33099365234375,-2.6956787109375,66.5494384765625,-12.9949951171875,81,-28c14.4505615234375,-15.0050048828125,28.43603515625,-59.50323486328125,36,-73c7.56396484375,-13.49676513671875,14.6539306640625,-50.360931396484375,4,-51c-10.6539306640625,-0.639068603515625,-38.0299072265625,16.729278564453125,-54,16c-15.9700927734375,-0.729278564453125,-57.11700439453125,-10.335601806640625,-68,-23c-10.88299560546875,-12.664398193359375,-30.48175048828125,-31.8182373046875,-49,-48c-18.51824951171875,-16.1817626953125,-128.7154541015625,46.58489990234375,-117,66Z" stroke="black" id="e15_area3" style="stroke-width: 1px; vector-effect: non-scaling-stroke;" fill="dodgerblue"/><path stroke="black" id="e5_area3" style="stroke-width: 1px; vector-effect: non-scaling-stroke;" fill="lightskyblue" d="M684,473c11.28521728515625,-5.4765625,17.4779052734375,3.403533935546875,27,-22c9.5220947265625,-25.403533935546875,0.11334228515625,-152.75909423828125,-11,-185c-11.11334228515625,-32.24092102050781,-27.1219482421875,-57.51277160644531,-45,-78c-15.8780517578125,-19.487228393554688,-46.0413818359375,-33.459228515625,-65,-47c-11.9586181640625,-6.540771484375,-37.82293701171875,-32.33811950683594,-44,-49c-6.17706298828125,-16.661880493164062,-24.15350341796875,-32.25982666015625,-37,-48c-17.84649658203125,-23.74017333984375,-46.171173095703125,-27.643863677978516,-73,-34c-26.828826904296875,-6.356137275695801,-90.66119384765625,-2.0264015197753906,-121,7c-30.33880615234375,9.02640151977539,-91.11219787597656,62.196434020996094,-98,90c-6.8878021240234375,27.803573608398438,0.35809326171875,72.03192138671875,9,96c8.64190673828125,23.96807861328125,46.381744384765625,78.64407348632812,67,84c20.618255615234375,5.355926513671875,45.61181640625,26.600555419921875,60,39c17.38818359375,26.399444580078125,33.830810546875,40.318145751953125,52,58c18.169189453125,20.681854248046875,45.40673828125,32.753997802734375,76,45c30.59326171875,12.246002197265625,114.27154541015625,25.4683837890625,138,34c23.72845458984375,8.5316162109375,53.71478271484375,15.4765625,65,10Z" transform=""/><path d="M414,179c-8.200714111328125,-2.533782958984375,-107.48443603515625,-31.05548095703125,-96,-37c11.48443603515625,-5.94451904296875,123.16604614257812,-9.151535034179688,143,-21c19.833953857421875,-11.848472595214844,37.022857666015625,-32.62786102294922,31,-28c-6.022857666015625,4.627861022949219,-106.3587646484375,-20.99920654296875,-95,-29c11.3587646484375,-8.00079345703125,90.02511596679688,2.7278366088867188,108,-4c17.974853515625,-6.727832794189453,32.87884521484375,-16.90953826904297,39,-24c6.12115478515625,-7.090461730957031,35.99224853515625,-16.752260208129883,15,-25c-20.99224853515625,-8.247739791870117,-143.797607421875,-9.588464736938477,-183,-9c-39.202392578125,0.5884647369384766,-102.72567749023438,15.998502731323242,-129,31c-26.274337768554688,15.00149917602539,-68.06556701660156,58.159080505371094,-69,86c-0.9344329833984375,27.840927124023438,24.0872802734375,91.22756958007812,33,111c8.9127197265625,19.772430419921875,19.465988159179688,38.63958740234375,29,50c9.534011840820312,11.36041259765625,39.863494873046875,31.92724609375,45,41c5.136505126953125,9.07275390625,27.2950439453125,24.2132568359375,32,20c4.7049560546875,-4.2132568359375,16.892333984375,-4.971923828125,7,-11c-9.892333984375,-6.028076171875,-46.241607666015625,-69.95281982421875,-34,-86c12.241607666015625,-16.047164916992188,47.794830322265625,-36.947601318359375,64,-39c16.205169677734375,-2.052398681640625,68.20071411132812,-23.466217041015625,60,-26Z" stroke="black" id="e11_area3" style="stroke-width: 1px; vector-effect: non-scaling-stroke;" fill="dodgerblue"/><path d="M293,421Z" stroke="black" id="e17_area3" style="stroke-width: 1px; vector-effect: non-scaling-stroke;" fill="khaki"/><path stroke="black" id="e37_area3" style="stroke-width: 1px; vector-effect: non-scaling-stroke;" fill="dodgerblue" d="M298,373c7.605499267578125,-6.043182373046875,12.497528076171875,-2.520294189453125,16,-2c3.502471923828125,0.520294189453125,8.91802978515625,3.953887939453125,10,7c1.08197021484375,3.046112060546875,1.727447509765625,8.957763671875,0,14c-1.727447509765625,5.042236328125,-10.1866455078125,17.110015869140625,-16,24c-5.8133544921875,6.889984130859375,-30.735992431640625,18.82867431640625,-38,21c-7.264007568359375,2.17132568359375,-18.180572509765625,1.997589111328125,-20,-2c-1.819427490234375,-3.997589111328125,-7.9144134521484375,-7.291290283203125,-6,-21c14.9144287109375,-17.708709716796875,45.394500732421875,-36.956817626953125,54,-41Z" transform=""/><path stroke="black" style="stroke-width: 1px; vector-effect: non-scaling-stroke;" fill="dodgerblue" transform="" id="e39_area3" d="M 278 353 c 7.6055 -6.04318 12.4975 -2.52029 16 -2 c 3.50247 0.520294 8.91803 3.95389 10 7 c 1.08197 3.04611 1.72745 8.95776 0 14 c -1.72745 5.04224 -10.1866 17.11 -16 24 c -5.81335 6.88998 -30.736 18.8287 -38 21 c -7.26401 2.17133 -18.1806 1.99759 -20 -2 c -1.81943 -3.99759 -7.91441 -7.29129 -6 -21 c 14.9144 -17.7087 45.3945 -36.9568 54 -41 Z"/><path stroke="black" style="stroke-width: 1px; vector-effect: non-scaling-stroke;" fill="dodgerblue" transform="matrix(0.856596 0 0 0.856596 41.6891 52.1697)" id="e40_area3" d="M 254 333 c 7.6055 -6.04318 12.4975 -2.52029 16 -2 c 3.50247 0.520294 8.91803 3.95389 10 7 c 1.08197 3.04611 1.72745 8.95776 0 14 c -1.72745 5.04224 -10.1866 17.11 -16 24 c -5.81335 6.88998 -30.736 18.8287 -38 21 c -7.26401 2.17133 -18.1806 1.99759 -20 -2 c -1.81943 -3.99759 -7.91441 -7.29129 -6 -21 c 14.9144 -17.7087 45.3945 -36.9568 54 -41 Z"/><path stroke="black" id="e35_area3" style="stroke-width: 1px; vector-effect: non-scaling-stroke;" fill="dodgerblue" d="M 276 483 c 6.27075 -0.486084 28.015 -13.0267 32 -21 c 3.98505 -7.9733 3.21686 -25.067 2 -33 c -1.21686 -7.93295 -12.3069 -23.1527 -20 -25 c -7.69308 -1.84732 -28.6805 7.17361 -28 14 c 0.680451 6.82639 14.1941 25.3153 10 29 c -4.19412 3.68466 -13.5635 32.8224 -8 35 c 5.56354 2.17764 5.72925 1.48608 12 1 Z" transform=""/><path stroke="black" style="stroke-width: 1px; vector-effect: non-scaling-stroke;" fill="dodgerblue" transform="matrix(-0.451975 0.815073 0.628342 0.431307 852.863 -660.362)" id="e45_area3" d="M 778 255 c 7.6055 -6.04318 12.4975 -2.52029 16 -2 c 3.50247 0.520294 8.91803 3.95389 10 7 c 1.08197 3.04611 1.72745 8.95776 0 14 c -1.72745 5.04224 -10.1866 17.11 -16 24 c -5.81335 6.88998 -30.736 18.8287 -38 21 c -7.26401 2.17133 -18.1806 1.99759 -20 -2 c -1.81943 -3.99759 -7.91441 -7.29129 -6 -21 c 14.9144 -17.7087 45.3945 -36.9568 54 -41 Z"/><path stroke="black" style="stroke-width: 1px; vector-effect: non-scaling-stroke;" fill="dodgerblue" transform="matrix(-0.451975 0.815073 0.628342 0.431307 852.863 -660.362)" id="e46_area3" d="M 766.38 225.952 c 7.6055 -6.04318 12.4975 -2.52029 16 -2 c 3.50247 0.520294 8.91803 3.95389 10 7 c 1.08197 3.04611 1.72745 8.95776 0 14 c -1.72745 5.04224 -10.1866 17.11 -16 24 c -5.81335 6.88998 -30.736 18.8287 -38 21 c -7.26401 2.17133 -18.1806 1.99759 -20 -2 c -1.81943 -3.99759 -7.91441 -7.29129 -6 -21 c 14.9144 -17.7087 45.3945 -36.9568 54 -41 Z"/><path stroke="black" style="stroke-width: 1px; vector-effect: non-scaling-stroke;" fill="dodgerblue" transform="matrix(-0.385085 0.694446 0.535351 0.367476 823.061 -548.768)" id="e47_area3" d="M 750.821 202.028 c 7.6055 -6.04318 12.4975 -2.52029 16 -2 c 3.50247 0.520294 8.91803 3.95389 10 7 c 1.08197 3.04611 1.72745 8.95776 0 14 c -1.72745 5.04224 -10.1866 17.11 -16 24 c -5.81335 6.88998 -30.736 18.8287 -38 21 c -7.26401 2.17133 -18.1806 1.99759 -20 -2 c -1.81943 -3.99759 -7.91441 -7.29129 -6 -21 c 14.9144 -17.7087 45.3945 -36.9568 54 -41 Z"/><path stroke="black" style="stroke-width: 1px; vector-effect: non-scaling-stroke;" fill="dodgerblue" transform="matrix(-0.373103 0.875106 0.915578 0.416758 778.53 -556.26)" id="e48_area3" d="M 651 249 c 6.27075 -0.486084 28.015 -13.0267 32 -21 c 3.98505 -7.9733 3.21686 -25.067 2 -33 c -1.21686 -7.93295 -12.3069 -23.1527 -20 -25 c -7.69308 -1.84732 -28.6805 7.17361 -28 14 c 0.680451 6.82639 14.1941 25.3153 10 29 c -4.19412 3.68466 -13.5635 32.8224 -8 35 c 5.56354 2.17764 5.72925 1.48608 12 1 Z"/></svg>